Coordinates
version=1
nRows=24
nColumns=24
inDegrees=yes

Units are S.I. units (second, meters, Newtons, ...)
Angles are in degrees.

endheader
time	pelvis_tilt	pelvis_list	pelvis_rotation	pelvis_tx	pelvis_ty	pelvis_tz	hip_flexion_r	hip_adduction_r	hip_rotation_r	knee_angle_r	ankle_angle_r	subtalar_angle_r	mtp_angle_r	hip_flexion_l	hip_adduction_l	hip_rotation_l	knee_angle_l	ankle_angle_l	subtalar_angle_l	mtp_angle_l	lumbar_extension	lumbar_bending	lumbar_rotation
      1.96000000	     -7.76504433	     -2.26525193	      3.45466213	      0.33294625	      1.28457710	     -0.89535505	     12.59628644	      7.27312546	     12.70649487	     -5.52795727	     -3.33977075	    -11.08819073	     -1.94994765	     23.92807225	      2.78468370	     -2.99873017	    -56.83492467	     -7.87060020	    -29.79812114	      8.18837772	     -0.05905470	      4.35395823	     -2.53847651
      1.96500000	     -7.67388078	     -2.27724481	      3.47904189	      0.33838525	      1.28492226	     -0.89544699	     11.79567555	      7.25490216	     12.81558446	     -4.99150234	     -3.20642672	    -11.09468016	     -1.86927103	     24.53630124	      2.93813596	     -2.74488603	    -56.28240044	     -6.88672312	    -29.29202577	      8.22228349	     -0.16099831	      4.35553451	     -2.49232226
      1.97000000	     -7.56487937	     -2.29457298	      3.51170842	      0.34377625	      1.28521313	     -0.89558670	     10.98227947	      7.23761468	     12.94335438	     -4.46021759	     -3.08947912	    -11.12288164	     -1.79617128	     25.10661889	      3.10475711	     -2.44392769	    -55.64871399	     -5.94124307	    -28.81761414	      8.25310648	     -0.29246462	      4.37190234	     -2.44971697
      1.97500000	     -7.45894399	     -2.31750110	      3.54629545	      0.34922180	      1.28544005	     -0.89571218	     10.15910986	      7.22604211	     13.06800878	     -3.90896401	     -2.96884958	    -11.18786139	     -1.71073958	     25.65132799	      3.25432038	     -2.14219489	    -54.93324261	     -5.02151035	    -28.27449045	      8.28535533	     -0.40436203	      4.38540485	     -2.40942605
      1.98000000	     -7.35625997	     -2.34249529	      3.57813058	      0.35464065	      1.28559874	     -0.89585079	      9.34993243	      7.21639872	     13.21567029	     -3.37288725	     -2.85727401	    -11.27853066	     -1.61724973	     26.17753012	      3.40768996	     -1.81489614	    -54.14171907	     -4.15175751	    -27.75750129	      8.29952420	     -0.52235433	      4.40350587	     -2.36982876
      1.98500000	     -7.24863913	     -2.37316595	      3.61104913	      0.36004825	      1.28569963	     -0.89598962	      8.53915123	      7.21377866	     13.35970910	     -2.83815638	     -2.75996438	    -11.39051519	     -1.52525084	     26.67258743	      3.55430241	     -1.46983463	    -53.27096968	     -3.33819715	    -27.28103593	      8.29979702	     -0.64539512	      4.42611124	     -2.34581837
      1.99000000	     -7.13391708	     -2.40953537	      3.64191394	      0.36545172	      1.28573673	     -0.89613696	      7.72183289	      7.21652394	     13.50666630	     -2.30400473	     -2.66034310	    -11.52383118	     -1.41929969	     27.13832196	      3.68675210	     -1.11925184	    -52.33774844	     -2.57058831	    -26.79735979	      8.28752603	     -0.77916172	      4.45802599	     -2.30931989
      1.99500000	     -7.02846315	     -2.45730598	      3.66489259	      0.37085605	      1.28568824	     -0.89626651	      6.92088610	      7.23521605	     13.64443694	     -1.77549070	     -2.55464272	    -11.67011317	     -1.28932345	     27.59602765	      3.79243215	     -0.77613530	    -51.34863834	     -1.86399243	    -26.34133896	      8.24889991	     -0.90219069	      4.49911251	     -2.26857172
      2.00000000	     -6.93158241	     -2.49212728	      3.68903651	      0.37622372	      1.28559617	     -0.89640247	      6.15594929	      7.24183855	     13.77619661	     -1.29533135	     -2.45337741	    -11.78897526	     -1.20140844	     28.02723440	      3.92028340	     -0.40452484	    -50.26705420	     -1.25237116	    -26.03541076	      8.20250910	     -1.02691809	      4.52669639	     -2.25791525
      2.00500000	     -6.80671782	     -2.56215227	      3.70801140	      0.38157791	      1.28542852	     -0.89654113	      5.35411868	      7.28882008	     13.88905538	     -0.79244844	     -2.33982490	    -11.93001004	     -1.05500205	     28.42477984	      3.98976111	     -0.03008662	    -49.17069447	     -0.67283251	    -25.62423898	      8.13411371	     -1.17652269	      4.59279150	     -2.19387714
      2.01000000	     -6.71295538	     -2.61117498	      3.71655742	      0.38692109	      1.28521189	     -0.89666161	      4.62437138	      7.32039832	     13.99175255	     -0.36462986	     -2.22156467	    -12.03053848	     -0.95568493	     28.81114000	      4.07918602	      0.34870575	    -47.97492663	     -0.18347646	    -25.37204818	      8.06422946	     -1.30190786	      4.63530573	     -2.17361171
      2.01500000	     -6.60367844	     -2.68007112	      3.72281878	      0.39222412	      1.28491936	     -0.89678866	      3.88493161	      7.37570381	     14.06165114	      0.06196220	     -2.08021981	    -12.11712661	     -0.84313601	     29.17475377	      4.12977482	      0.71790552	    -46.75577296	      0.25754606	    -25.10873171	      7.98489222	     -1.45132508	      4.70217904	     -2.13006331
      2.02000000	     -6.50200938	     -2.75829832	      3.72548460	      0.39751994	      1.28456385	     -0.89688990	      3.17440920	      7.44795609	     14.11613039	      0.45054441	     -1.91959607	    -12.17629454	     -0.72320938	     29.52327129	      4.15674952	      1.08964768	    -45.48808715	      0.64657083	    -24.86529985	      7.89133767	     -1.59005217	      4.76633091	     -2.07909377
      2.02500000	     -6.41558715	     -2.83900584	      3.71691352	      0.40280268	      1.28414509	     -0.89699118	      2.50516006	      7.52801229	     14.14451798	      0.79602195	     -1.73747850	    -12.20536658	     -0.60892293	     29.86139112	      4.16745247	      1.45167225	    -44.16684711	      0.98384279	    -24.65593345	      7.79364981	     -1.71611872	      4.83882452	     -2.03282185
      2.03000000	     -6.32519300	     -2.93388392	      3.70471872	      0.40805414	      1.28366113	     -0.89709000	      1.85118914	      7.62868956	     14.14525579	      1.11058417	     -1.52522728	    -12.19568483	     -0.48851996	     30.18048304	      4.14931837	      1.81128593	    -42.81543304	      1.27770358	    -24.43939209	      7.68400038	     -1.85211056	      4.92529974	     -1.97067983
      2.03500000	     -6.24573769	     -3.03302017	      3.68401577	      0.41327492	      1.28311799	     -0.89719049	      1.23817414	      7.73959647	     14.12461334	      1.37433314	     -1.28427098	    -12.14848306	     -0.37135409	     30.48682504	      4.11397939	      2.16408876	    -41.41884475	      1.52843516	    -24.22622816	      7.57057974	     -1.98510551	      5.01976760	     -1.91457038
      2.04000000	     -6.25414849	     -3.15121587	      3.64338889	      0.41853035	      1.28243196	     -0.89726142	      0.74261712	      7.87306357	     14.13582648	      1.59455805	     -1.01143037	    -12.13405129	     -0.32260265	     30.87561095	      4.04411173	      2.49683261	    -40.00250797	      1.72484113	    -24.08636083	      7.50168278	     -2.00547440	      5.11921644	     -1.82079164
      2.04500000	     -6.11099676	     -3.26234856	      3.62158062	      0.42366284	      1.28186324	     -0.89734840	      0.11292511	      8.01335207	     14.04499939	      1.76774710	     -0.72963161	    -11.94158394	     -0.18069067	     31.05623705	      3.96384280	      2.84771426	    -38.50945565	      1.91279765	    -23.76356614	      7.36513588	     -2.23009363	      5.22403222	     -1.77659590
      2.05000000	     -6.06878611	     -3.40280199	      3.60316258	      0.42887640	      1.28112904	     -0.89747567	     -0.38765973	      8.18211333	     13.87764104	      1.89691885	     -0.34919187	    -11.61527800	      0.00656233	     31.33770060	      3.85950907	      3.20447298	    -37.01664845	      2.09766916	    -23.46997108	      7.15497776	     -2.31508232	      5.35160769	     -1.70332462
      2.05500000	     -6.10987154	     -3.53966797	      3.53557035	      0.43405731	      1.28028784	     -0.89752635	     -0.77479812	      8.34957552	     13.88701386	      1.98837149	     -0.03311911	    -11.59171902	      0.03208821	     31.68423220	      3.72529048	      3.50949591	    -35.47902055	      2.15206692	    -23.25648021	      7.10315545	     -2.32002999	      5.47368486	     -1.62588354
      2.06000000	     -6.02384103	     -3.68625129	      3.50186361	      0.43920391	      1.27952852	     -0.89764187	     -1.27744248	      8.53685792	     13.67424808	      2.03694403	      0.38537139	    -11.11972177	      0.19937241	     31.85462139	      3.57587664	      3.83711353	    -33.89431288	      2.28509207	    -22.85514775	      6.92233048	     -2.47753921	      5.61361496	     -1.55891559
      2.06500000	     -6.09274268	     -3.83928220	      3.41943658	      0.44437016	      1.27859266	     -0.89767942	     -1.60069164	      8.72628365	     13.68444737	      2.06655349	      0.72411108	    -11.06405912	      0.22643732	     32.17596353	      3.39680684	      4.12293323	    -32.28650765	      2.24964179	    -22.58457998	      6.88078683	     -2.45535030	      5.74331462	     -1.47799706
      2.07000000	     -6.03537431	     -3.99689376	      3.36578812	      0.44952580	      1.27774242	     -0.89778404	     -2.03290740	      8.92923001	     13.46571395	      2.03461772	      1.20967321	    -10.47910432	      0.39983529	     32.31783860	      3.20292775	      4.40502315	    -30.63195295	      2.30993739	    -22.14945557	      6.73544581	     -2.57620581	      5.88910551	     -1.38658427
      2.07500000	     -6.07346065	     -4.16319019	      3.27014214	      0.45466833	      1.27678384	     -0.89783624	     -2.35046525	      9.13691212	     13.40951879	      1.98664694	      1.64557062	    -10.15588757	      0.49528870	     32.54357860	      2.97606940	      4.65251792	    -28.95746006	      2.19784383	    -21.79364334	      6.65932381	     -2.60293503	      6.04279621	     -1.30906084
